<mxfile host="app.diagrams.net" agent="Mozilla/5.0 (Windows NT 10.0; Win64; x64) AppleWebKit/537.36 (KHTML, like Gecko) Chrome/130.0.0.0 Safari/537.36" version="28.0.6">
  <diagram name="Seite-1" id="XeEdsF5BqcHRWCsrdtny">
    <mxGraphModel dx="1426" dy="897" grid="1" gridSize="10" guides="1" tooltips="1" connect="1" arrows="1" fold="1" page="1" pageScale="1" pageWidth="827" pageHeight="1169" math="0" shadow="0">
      <root>
        <mxCell id="0" />
        <mxCell id="1" parent="0" />
        <mxCell id="WmM9DqieABWU6b89RkYY-1" value="&lt;font style=&quot;color: rgb(255, 255, 255);&quot;&gt;WEB BROWSER&lt;/font&gt;" style="shape=ext;double=1;rounded=1;whiteSpace=wrap;html=1;fillColor=#fa6800;fontColor=#000000;strokeColor=#C73500;" vertex="1" parent="1">
          <mxGeometry x="30" y="40" width="120" height="310" as="geometry" />
        </mxCell>
        <mxCell id="WmM9DqieABWU6b89RkYY-2" value="" style="endArrow=classic;html=1;rounded=0;" edge="1" parent="1">
          <mxGeometry width="50" height="50" relative="1" as="geometry">
            <mxPoint x="150" y="179.5" as="sourcePoint" />
            <mxPoint x="230" y="179.5" as="targetPoint" />
          </mxGeometry>
        </mxCell>
        <mxCell id="WmM9DqieABWU6b89RkYY-3" value="Controller" style="shape=ext;double=1;rounded=1;whiteSpace=wrap;html=1;fillColor=#008a00;fontColor=#ffffff;strokeColor=#005700;" vertex="1" parent="1">
          <mxGeometry x="230" y="140" width="120" height="80" as="geometry" />
        </mxCell>
        <mxCell id="WmM9DqieABWU6b89RkYY-4" value="Service" style="shape=ext;double=1;rounded=1;whiteSpace=wrap;html=1;fillColor=#a20025;fontColor=#ffffff;strokeColor=#6F0000;" vertex="1" parent="1">
          <mxGeometry x="420" y="140" width="120" height="80" as="geometry" />
        </mxCell>
        <mxCell id="WmM9DqieABWU6b89RkYY-5" value="" style="endArrow=classic;html=1;rounded=0;" edge="1" parent="1">
          <mxGeometry width="50" height="50" relative="1" as="geometry">
            <mxPoint x="350" y="179.5" as="sourcePoint" />
            <mxPoint x="420" y="179.5" as="targetPoint" />
            <Array as="points">
              <mxPoint x="360" y="179.5" />
            </Array>
          </mxGeometry>
        </mxCell>
        <mxCell id="WmM9DqieABWU6b89RkYY-6" value="Repository" style="shape=ext;double=1;rounded=1;whiteSpace=wrap;html=1;fillColor=#6a00ff;strokeColor=#3700CC;fontColor=#ffffff;" vertex="1" parent="1">
          <mxGeometry x="610" y="140" width="120" height="80" as="geometry" />
        </mxCell>
        <mxCell id="WmM9DqieABWU6b89RkYY-7" value="" style="endArrow=classic;html=1;rounded=0;" edge="1" parent="1">
          <mxGeometry width="50" height="50" relative="1" as="geometry">
            <mxPoint x="540" y="184.5" as="sourcePoint" />
            <mxPoint x="610" y="184.5" as="targetPoint" />
            <Array as="points">
              <mxPoint x="550" y="184.5" />
            </Array>
          </mxGeometry>
        </mxCell>
        <mxCell id="WmM9DqieABWU6b89RkYY-8" value="" style="endArrow=classic;html=1;rounded=0;" edge="1" parent="1">
          <mxGeometry width="50" height="50" relative="1" as="geometry">
            <mxPoint x="730" y="180" as="sourcePoint" />
            <mxPoint x="810" y="180" as="targetPoint" />
          </mxGeometry>
        </mxCell>
        <mxCell id="WmM9DqieABWU6b89RkYY-9" value="" style="image;html=1;image=img/lib/clip_art/computers/Database_128x128.png" vertex="1" parent="1">
          <mxGeometry x="800" y="130" width="110" height="90" as="geometry" />
        </mxCell>
        <mxCell id="WmM9DqieABWU6b89RkYY-10" value="" style="endArrow=classic;html=1;rounded=0;exitX=0.45;exitY=1.05;exitDx=0;exitDy=0;exitPerimeter=0;" edge="1" parent="1" source="WmM9DqieABWU6b89RkYY-3">
          <mxGeometry width="50" height="50" relative="1" as="geometry">
            <mxPoint x="270" y="280" as="sourcePoint" />
            <mxPoint x="284" y="280" as="targetPoint" />
          </mxGeometry>
        </mxCell>
        <mxCell id="WmM9DqieABWU6b89RkYY-11" value="&lt;font style=&quot;color: rgb(255, 255, 255);&quot;&gt;Web Teamplate&lt;/font&gt;" style="rounded=0;whiteSpace=wrap;html=1;fillColor=#1ba1e2;strokeColor=#006EAF;fontColor=#ffffff;" vertex="1" parent="1">
          <mxGeometry x="230" y="280" width="120" height="60" as="geometry" />
        </mxCell>
        <mxCell id="WmM9DqieABWU6b89RkYY-12" value="" style="endArrow=classic;html=1;rounded=0;entryX=1.017;entryY=0.874;entryDx=0;entryDy=0;entryPerimeter=0;exitX=0;exitY=0.5;exitDx=0;exitDy=0;" edge="1" parent="1" source="WmM9DqieABWU6b89RkYY-11" target="WmM9DqieABWU6b89RkYY-1">
          <mxGeometry width="50" height="50" relative="1" as="geometry">
            <mxPoint x="220" y="310" as="sourcePoint" />
            <mxPoint x="440" y="440" as="targetPoint" />
          </mxGeometry>
        </mxCell>
      </root>
    </mxGraphModel>
  </diagram>
</mxfile>
